<svg id="Group_12" data-name="Group 12" xmlns="http://www.w3.org/2000/svg" xmlns:xlink="http://www.w3.org/1999/xlink" width="150.915" height="36.891" viewBox="0 0 150.915 36.891">
  <defs>
    <clipPath id="clip-path">
      <rect id="Rectangle_19" data-name="Rectangle 19" width="150.915" height="36.891" fill="#fff"/>
    </clipPath>
  </defs>
  <rect id="Rectangle_17" data-name="Rectangle 17" width="54.505" height="3.927" transform="translate(0 1.029)" fill="#fff"/>
  <rect id="Rectangle_18" data-name="Rectangle 18" width="54.505" height="3.927" transform="translate(0 8.675)" fill="#fff"/>
  <g id="Group_8" data-name="Group 8">
    <g id="Group_7" data-name="Group 7" clip-path="url(#clip-path)">
      <path id="Path_7" data-name="Path 7" d="M38.964.439c3.581,0,16.556.4,16.556,17.3,0,17.1-12.38,17.5-18.294,17.5H26.187V.439Zm-8.1,30.874h6.512c8.951,0,13.177-4.177,13.177-13.473,0-10.541-5.92-13.475-11.834-13.475H30.861Z" transform="translate(36.168 0.607)" fill="#fff"/>
      <path id="Path_8" data-name="Path 8" d="M56.234,24.809c-.15,4.624,3.579,8.153,9.944,8.153,6.165,0,8.551-3.131,8.551-6.462,0-4.277-3.779-5.419-7.01-6.115C59.763,18.644,52.753,18,52.753,9.994,52.753,3.431,58.072,0,65.928,0c8.6,0,12.48,4.724,12.877,10.094H74.133c-.648-5.767-6.117-6.165-8.353-6.165-4.822,0-8.055,2.236-8.055,5.817,0,4.224,4.127,4.922,8.7,5.817C72.64,16.756,79.7,18.047,79.7,26.4c0,10.391-10.887,10.491-13.773,10.491-4.969,0-13.82-1.1-14.368-12.082Z" transform="translate(71.212 0.001)" fill="#fff"/>
      <path id="Path_9" data-name="Path 9" d="M63.948,4.37V.443H46.92l0-.007H43l-.067,0a2.417,2.417,0,0,0-2.35,2.414V35.244h4.674V19.633H61.612V15.7H45.253V4.37Z" transform="translate(56.046 0.603)" fill="#fff"/>
      <path id="Path_10" data-name="Path 10" d="M53.6,7.253c-3.053,0-4.584,1.755-5.815,3.165-1.019,1.169-1.633,1.874-2.976,1.874s-1.957-.7-2.979-1.874C40.6,9.008,39.07,7.253,36.015,7.253S31.431,9.008,30.2,10.417c-1.022,1.169-1.636,1.874-2.979,1.874s-1.957-.7-2.976-1.874c-1.229-1.41-2.76-3.165-5.812-3.165s-4.584,1.755-5.815,3.165c-1.019,1.169-1.633,1.874-2.976,1.874s-1.957-.7-2.976-1.874C5.448,9.02,3.929,7.279.912,7.255L0,7.248v3.76l.893.01c1.262.014,1.843.617,2.938,1.874,1.229,1.41,2.757,3.165,5.812,3.165s4.584-1.755,5.812-3.165c1.022-1.169,1.636-1.876,2.979-1.876s1.957.707,2.979,1.876c1.229,1.41,2.757,3.165,5.81,3.165s4.584-1.755,5.815-3.165c1.019-1.169,1.633-1.876,2.976-1.876s1.96.707,2.979,1.879c1.231,1.407,2.76,3.162,5.812,3.162s4.584-1.755,5.815-3.165c1.019-1.169,1.633-1.876,2.976-1.876h.914V7.253Z" transform="translate(0 10.012)" fill="#fff"/>
      <path id="Path_11" data-name="Path 11" d="M53.6,11.362c-3.053,0-4.584,1.755-5.815,3.165C46.763,15.7,46.149,16.4,44.806,16.4s-1.957-.7-2.979-1.874c-1.229-1.41-2.757-3.165-5.812-3.165s-4.584,1.755-5.812,3.165C29.181,15.7,28.567,16.4,27.224,16.4s-1.957-.7-2.976-1.874c-1.229-1.41-2.76-3.165-5.812-3.165s-4.584,1.755-5.815,3.165C11.6,15.7,10.987,16.4,9.644,16.4s-1.957-.7-2.976-1.874c-1.219-1.4-2.738-3.138-5.755-3.162L0,11.357v3.76l.893.01c1.262.014,1.843.617,2.938,1.874,1.229,1.41,2.757,3.165,5.812,3.165S14.227,18.41,15.456,17c1.022-1.169,1.636-1.876,2.979-1.876s1.957.707,2.979,1.879c1.229,1.407,2.757,3.162,5.81,3.162S31.807,18.41,33.038,17c1.019-1.169,1.633-1.876,2.976-1.876s1.96.707,2.979,1.879c1.231,1.407,2.76,3.162,5.812,3.162S49.39,18.41,50.621,17c1.019-1.169,1.633-1.876,2.976-1.876h.914V11.362Z" transform="translate(0 15.687)" fill="#fff"/>
    </g>
  </g>
</svg>
