<svg xmlns="http://www.w3.org/2000/svg" xmlns:xlink="http://www.w3.org/1999/xlink" width="82" height="76" viewBox="0 0 82 76">
  <defs>
    <clipPath id="clip-path">
      <rect id="Rectangle_32" data-name="Rectangle 32" width="82" height="76" transform="translate(1402 19)" fill="#fff" stroke="#707070" stroke-width="1"/>
    </clipPath>
  </defs>
  <g id="Mask_Group_6" data-name="Mask Group 6" transform="translate(-1402 -19)" clip-path="url(#clip-path)">
    <g id="Group_18" data-name="Group 18">
      <path id="Subtraction_1" data-name="Subtraction 1" d="M2023,60a10.591,10.591,0,0,1-7.538-3.122l-19.34-19.341a10.657,10.657,0,0,1,0-15.074l19.34-19.341a10.659,10.659,0,0,1,15.075,0l19.341,19.341a10.659,10.659,0,0,1,0,15.074l-19.341,19.341A10.588,10.588,0,0,1,2023,60Zm-13.777-23.867v2.95H2028.4v-2.95Zm0-7.374v2.95h27.284v-2.95Zm0-7.374v2.949h27.284V21.385Z" transform="translate(-581 29)" fill="#fff" stroke="rgba(0,0,0,0)" stroke-miterlimit="10" stroke-width="1"/>
      <g id="Group_17" data-name="Group 17" transform="translate(0 54)">
        <g id="Dropdown-item-other" transform="translate(1222 93)">
          <rect id="Rectangle_31" data-name="Rectangle 31" width="250" height="50" fill="#fff"/>
          <g id="Group_14" data-name="Group 14" transform="translate(-1491 -37)">
            <text id="About_us" data-name="About us" transform="translate(1515 67)" fill="#1c2e49" font-size="17" font-family="ArialMT, Arial"><tspan x="0" y="0">About us</tspan></text>
          </g>
          <line id="Line_2" data-name="Line 2" x2="250" transform="translate(0 49.5)" fill="none" stroke="#eef0ef" stroke-width="1"/>
        </g>
        <g id="Dropdown-item-other-2" data-name="Dropdown-item-other" transform="translate(1222 43)">
          <rect id="Rectangle_31-2" data-name="Rectangle 31" width="250" height="50" fill="#fff"/>
          <g id="Group_14-2" data-name="Group 14" transform="translate(-1491 -37)">
            <text id="Products_catalogue" data-name="Products catalogue" transform="translate(1515 67)" fill="#1c2e49" font-size="17" font-family="ArialMT, Arial"><tspan x="0" y="0">Products catalogue</tspan></text>
          </g>
          <line id="Line_2-2" data-name="Line 2" x2="250" transform="translate(0 49.5)" fill="none" stroke="#eef0ef" stroke-width="1"/>
        </g>
        <g id="Dropdown-item-other-3" data-name="Dropdown-item-other" transform="translate(1222 143)">
          <rect id="Rectangle_31-3" data-name="Rectangle 31" width="250" height="50" fill="#fff"/>
          <g id="Group_14-3" data-name="Group 14" transform="translate(-1491 -37)">
            <text id="Contact" transform="translate(1515 67)" fill="#1c2e49" font-size="17" font-family="ArialMT, Arial"><tspan x="0" y="0">Contact</tspan></text>
          </g>
          <line id="Line_2-3" data-name="Line 2" x2="250" transform="translate(0 49.5)" fill="none" stroke="#eef0ef" stroke-width="1"/>
        </g>
        <g id="Dropdown-item-other-4" data-name="Dropdown-item-other" transform="translate(1222 193)">
          <rect id="Rectangle_31-4" data-name="Rectangle 31" width="250" height="50" fill="#fff"/>
          <g id="Group_14-4" data-name="Group 14" transform="translate(-1491 -37)">
            <text id="Login" transform="translate(1515 67)" fill="#1c2e49" font-size="17" font-family="ArialMT, Arial"><tspan x="0" y="0">Login</tspan></text>
          </g>
          <line id="Line_2-4" data-name="Line 2" x2="250" transform="translate(0 49.5)" fill="none" stroke="#eef0ef" stroke-width="1"/>
        </g>
        <g id="Dropdown-item-other-5" data-name="Dropdown-item-other" transform="translate(1222 243)">
          <rect id="Rectangle_31-5" data-name="Rectangle 31" width="250" height="50" fill="#fff"/>
          <g id="Group_14-5" data-name="Group 14" transform="translate(-1491 -37)">
            <text id="Shipshop" transform="translate(1515 67)" fill="#1c2e49" font-size="17" font-family="ArialMT, Arial"><tspan x="0" y="0">Shipshop</tspan></text>
            <path id="open_in_new_FILL0_wght700_GRAD0_opsz20" d="M112.551,222A2.522,2.522,0,0,1,110,219.449v-10.9A2.522,2.522,0,0,1,112.551,206H118v2.551h-5.449v10.9h10.9V214H126v5.449A2.522,2.522,0,0,1,123.449,222Zm4.108-4.887-1.773-1.773,6.789-6.789h-1.6V206H126v5.924h-2.551v-1.6Z" transform="translate(1496.823 -153)" fill="#1c2e49"/>
          </g>
          <line id="Line_2-5" data-name="Line 2" x2="250" transform="translate(0 49.5)" fill="none" stroke="#eef0ef" stroke-width="1"/>
        </g>
      </g>
    </g>
  </g>
</svg>
