<?xml version="1.0" encoding="utf-8"?>
<!-- Generator: Adobe Illustrator 27.8.1, SVG Export Plug-In . SVG Version: 6.00 Build 0)  -->
<svg version="1.1" id="Lager_1" xmlns="http://www.w3.org/2000/svg" xmlns:xlink="http://www.w3.org/1999/xlink" x="0px" y="0px"
	 viewBox="0 0 1149 905" style="enable-background:new 0 0 1149 905;" xml:space="preserve">
<style type="text/css">
	.st0{clip-path:url(#SVGID_00000105425073625735137310000013296641143607940995_);}
	.st1{fill:#FFFFFF;filter:url(#Adobe_OpacityMaskFilter);}
	.st2{mask:url(#mask0_1648_12_00000010290355654794121790000008391518047931995567_);}
	.st3{fill:#1C2E49;}
	.st4{clip-path:url(#SVGID_00000091011191164487770670000003434942739758906023_);}
	.st5{fill:#FFFFFF;filter:url(#Adobe_OpacityMaskFilter_00000076580716699779145260000007481380722415114369_);}
	.st6{mask:url(#mask1_1648_12_00000039812988100656440050000014433256463160137118_);}
	.st7{fill:#FFFFFF;}
	.st8{fill:#C8D0CD;}
</style>
<g>
	<defs>
		<rect id="SVGID_1_" x="-17.8" width="1149" height="905"/>
	</defs>
	<clipPath id="SVGID_00000148622281800742241600000011958228978401316780_">
		<use xlink:href="#SVGID_1_"  style="overflow:visible;"/>
	</clipPath>
	<g style="clip-path:url(#SVGID_00000148622281800742241600000011958228978401316780_);">
		<defs>
			<filter id="Adobe_OpacityMaskFilter" filterUnits="userSpaceOnUse" x="-941.4" y="-383.3" width="1909.9" height="1909.9">
				<feColorMatrix  type="matrix" values="1 0 0 0 0  0 1 0 0 0  0 0 1 0 0  0 0 0 1 0"/>
			</filter>
		</defs>
		
			<mask maskUnits="userSpaceOnUse" x="-941.4" y="-383.3" width="1909.9" height="1909.9" id="mask0_1648_12_00000010290355654794121790000008391518047931995567_">
			<path class="st1" d="M1518.2,0h-1536v905h1536V0z"/>
		</mask>
		<g class="st2">
			<path class="st3" d="M-4.1-375.9L-934,554c-9.8,9.8-9.8,25.6,0,35.4l929.9,929.9c9.8,9.8,25.6,9.8,35.4,0l929.9-929.9
				c9.8-9.8,9.8-25.6,0-35.4L31.3-375.9C21.5-385.7,5.7-385.7-4.1-375.9z"/>
		</g>
		<g>
			<defs>
				<rect id="SVGID_00000155852292928383067610000010179764971629824673_" x="38.2" y="-107" width="1165" height="1012"/>
			</defs>
			<clipPath id="SVGID_00000147921167349247965410000006430371264576421024_">
				<use xlink:href="#SVGID_00000155852292928383067610000010179764971629824673_"  style="overflow:visible;"/>
			</clipPath>
			<g style="clip-path:url(#SVGID_00000147921167349247965410000006430371264576421024_);">
				<defs>
					
						<filter id="Adobe_OpacityMaskFilter_00000100360116907324407970000017533652291517986438_" filterUnits="userSpaceOnUse" x="213.4" y="-159.8" width="897.4" height="1477.6">
						<feColorMatrix  type="matrix" values="1 0 0 0 0  0 1 0 0 0  0 0 1 0 0  0 0 0 1 0"/>
					</filter>
				</defs>
				
					<mask maskUnits="userSpaceOnUse" x="213.4" y="-159.8" width="897.4" height="1477.6" id="mask1_1648_12_00000039812988100656440050000014433256463160137118_">
					<path style="fill:#FFFFFF;filter:url(#Adobe_OpacityMaskFilter_00000100360116907324407970000017533652291517986438_);" d="
						M1203.2-107H38.2V905h1165V-107z"/>
				</mask>
				<g class="st6">
					<path class="st7" d="M946.3,561.9c-2.3,2.3-4.1,5-5.4,8c-1.2,3-1.8,6.2-1.8,9.5c0.1,3.2,0.8,6.5,2.1,9.4c1.3,3,3.2,5.6,5.6,7.8
						l45.1,42.8c5.1,4.7,11.7,7.3,18.6,7.3c6.9,0,13.6-2.6,18.6-7.3l45.1-42.8c2.4-2.3,4.4-5,5.7-8c1.3-3,2-6.3,2-9.6
						c0-3.3-0.7-6.6-2-9.6c-1.3-3-3.3-5.8-5.7-8l-45.1-42.8c-5.1-4.7-11.7-7.3-18.6-7.3c-6.9,0-13.6,2.6-18.6,7.3l-18.2,17.3
						l-20.2-19.2l18.2-17.3c21.4-20.3,56.3-20.3,77.7,0l45.1,42.8c5.1,4.7,9.1,10.4,11.9,16.8c2.8,6.3,4.2,13.2,4.2,20.1
						c0,6.9-1.4,13.8-4.2,20.1c-2.8,6.3-6.8,12.1-11.9,16.8l-45.1,42.8c-21.4,20.3-56.3,20.3-77.7,0l-45.1-42.8
						c-5-4.7-9-10.3-11.8-16.6c-2.8-6.3-4.2-13-4.3-19.9c-0.1-6.9,1.3-13.6,4-20c2.7-6.3,6.6-12,11.5-16.8L946.3,561.9z"/>
					<path class="st8" d="M973.2,542.1c5,4.7,9,10.3,11.8,16.6c2.8,6.3,4.2,13,4.3,19.9c0,6.9-1.3,13.6-4,20
						c-2.7,6.3-6.6,12-11.5,16.8l-20.2-19.2c2.3-2.3,4.1-5,5.3-8c1.2-3,1.8-6.2,1.8-9.5c-0.1-3.2-0.8-6.5-2.1-9.4
						c-1.3-3-3.2-5.6-5.6-7.8L213.4-140.6l20.2-19.2L973.2,542.1z"/>
					<path class="st8" d="M946.3,641.4l-20.2-19.2l-712.7,676.4l20.2,19.2L946.3,641.4z"/>
				</g>
			</g>
		</g>
	</g>
</g>
</svg>
