<svg width="1149" height="905" viewBox="0 0 1149 905" fill="none" xmlns="http://www.w3.org/2000/svg">
<g clip-path="url(#clip0_1648_12)">
<mask id="mask0_1648_12" style="mask-type:luminance" maskUnits="userSpaceOnUse" x="0" y="0" width="1536" height="905">
<path d="M1536 0H0V905H1536V0Z" fill="white"/>
</mask>
<g mask="url(#mask0_1648_12)">
<path d="M4.22262 -367.617L-925.717 562.322C-935.48 572.085 -935.48 587.915 -925.717 597.678L4.22262 1527.62C13.9857 1537.38 29.8149 1537.38 39.578 1527.62L969.517 597.678C979.281 587.915 979.281 572.085 969.517 562.322L39.578 -367.617C29.8149 -377.38 13.9857 -377.38 4.22262 -367.617Z" fill="#1C2E49"/>
<path d="M4.5761 -367.264L-925.363 562.676C-934.931 572.244 -934.931 587.756 -925.363 597.324L4.5761 1527.26C14.144 1536.83 29.6565 1536.83 39.2243 1527.26L969.164 597.324C978.732 587.756 978.732 572.244 969.164 562.676L39.2243 -367.264C29.6565 -376.831 14.144 -376.831 4.5761 -367.264Z" stroke="#707070"/>
</g>
<g clip-path="url(#clip1_1648_12)">
<mask id="mask1_1648_12" style="mask-type:luminance" maskUnits="userSpaceOnUse" x="56" y="-107" width="1165" height="1012">
<path d="M1221 -107H56V905H1221V-107Z" fill="white"/>
</mask>
<g mask="url(#mask1_1648_12)">
<path d="M964.11 561.902C961.802 564.189 959.981 566.92 958.756 569.929C957.531 572.939 956.928 576.165 956.982 579.413C957.036 582.662 957.747 585.866 959.071 588.833C960.396 591.8 962.307 594.468 964.689 596.677L1009.83 639.515C1014.89 644.221 1021.54 646.838 1028.46 646.838C1035.37 646.838 1042.02 644.221 1047.08 639.515L1092.22 596.678C1094.65 594.421 1096.6 591.686 1097.92 588.645C1099.25 585.603 1099.94 582.32 1099.94 579.001C1099.94 575.682 1099.25 572.398 1097.92 569.356C1096.6 566.315 1094.65 563.58 1092.22 561.323L1047.08 518.486C1042.02 513.78 1035.37 511.164 1028.46 511.163C1021.55 511.162 1014.89 513.777 1009.83 518.481L991.601 535.782L971.357 516.57L989.587 499.269C1011.02 478.927 1045.9 478.928 1067.33 499.268L1112.47 542.104C1117.54 546.819 1121.59 552.528 1124.35 558.876C1127.12 565.224 1128.55 572.074 1128.55 578.999C1128.55 585.923 1127.12 592.773 1124.35 599.121C1121.58 605.469 1117.54 611.178 1112.47 615.892L1067.33 658.729C1045.89 679.072 1011.02 679.069 989.582 658.728L944.443 615.888C939.423 611.222 935.409 605.58 932.646 599.308C929.883 593.036 928.43 586.266 928.376 579.412C928.321 572.559 929.667 565.767 932.33 559.451C934.993 553.136 938.918 547.431 943.863 542.686L964.11 561.902Z" fill="white"/>
<path d="M990.997 542.108C996.016 546.773 1000.03 552.414 1002.79 558.684C1005.56 564.955 1007.01 571.723 1007.07 578.575C1007.12 585.427 1005.78 592.219 1003.12 598.533C1000.46 604.848 996.535 610.553 991.593 615.299L971.348 596.087C973.653 593.799 975.471 591.068 976.693 588.06C977.915 585.051 978.517 581.826 978.461 578.58C978.406 575.333 977.695 572.13 976.37 569.165C975.046 566.2 973.135 563.534 970.754 561.325L231.143 -140.592L251.387 -159.804L990.997 542.108Z" fill="#C8D0CD"/>
<path d="M964.087 641.427L943.842 622.215L231.14 1298.59L251.385 1317.8L964.087 641.427Z" fill="#C8D0CD"/>
</g>
</g>
</g>
<defs>
<clipPath id="clip0_1648_12">
<rect width="1149" height="905" fill="white"/>
</clipPath>
<clipPath id="clip1_1648_12">
<rect width="1165" height="1012" fill="white" transform="translate(56 -107)"/>
</clipPath>
</defs>
</svg>
